<svg xmlns="http://www.w3.org/2000/svg" width="721" height="626" fill="none" xmlns:v="https://vecta.io/nano"><g clip-path="url(#A)"><path d="M693.382 592.645c.038 43.715-86.665 30.27-192.81 30.36S309.037 636.692 309 592.977s86.633-53.297 192.777-53.39 191.568 9.343 191.605 53.057z" fill="#e6e6e6"/><path d="M129.14 97.54s5.264 24.213-12.632 33.687c0 0 4.2 53.7 31.582 54.742s27.37-28.423 27.37-28.423l-4.21-15.79s-20.002-11.58-7.37-33.688L129.14 97.54z" fill="#e3bda1"/><path d="M151.775 110.7c27.326 0 49.478-22.152 49.478-49.478S179.1 11.742 151.775 11.742s-49.478 22.152-49.478 49.478 22.152 49.48 49.478 49.48z" fill="#337748"/><g fill="#e3bda1"><path d="M99.665 210.182v58.953l87.377-3.158-6.317-57.9-81.06 2.105zm52.635-95.8c17.443 0 31.582-14.14 31.582-31.58S169.744 51.22 152.3 51.22s-31.58 14.14-31.58 31.582 14.14 31.58 31.582 31.58z"/><path d="M113.355 132.38s-18.173.075-23.827 4.307-13.093 4.506-14.915 35.86l-2.233 64.6s1.298 19.02 16.463 14.14 9.26-31.628 9.26-31.628l6.053-25.7 14.902-24.1-5.704-37.482zm60 11.48s25.266 3.158 27.37 16.844-9.474 69.48-9.474 69.48l-17.897-17.896 9.475-34.74-9.475-33.687z"/></g><path d="M108.613 130.7l.527 19.475-14.74 31.582 6.468 82.236 86.785 1.77-5.876-62.952s11.58-14.738 5.264-27.37-11.054-32.108-11.054-32.108l-8.422-5.264s14.212 33.16-15.264 27.897-31.056-38.424-31.056-38.424l-12.633 3.158z" fill="#fff"/><path d="M324.654 590.408a3 3 0 0 1-3.122-2.764L308.77 424.242a1.87 1.87 0 0 1 .335-1.221h0c.308-.436.787-.72 1.317-.78l229.88-25.895a3 3 0 0 1 3.327 2.748l13.904 178.017a3 3 0 0 1-2.86 3.231l-230.02 10.065z" fill="#f5f5f5"/><g fill="#337748"><path d="M324.654 590.408a3 3 0 0 1-3.122-2.764L308.77 424.242a1.87 1.87 0 0 1 .335-1.221h0a1.87 1.87 0 0 1 1.317-.78l229.88-25.895a3 3 0 0 1 3.327 2.748l13.904 178.017a3 3 0 0 1-2.86 3.231l-230.02 10.065zm-11.003-166.56a3 3 0 0 0-2.655 3.215l12.382 158.54a3 3 0 0 0 3.122 2.763l226.023-9.888a3 3 0 0 0 2.859-3.23L541.794 401.27a3 3 0 0 0-3.326-2.747L313.65 423.848zm36.872 35.665l148.792-11.622c3.53-.275 6.17-3.36 5.894-6.9s-3.362-6.17-6.892-5.894l-148.793 11.62c-3.53.276-6.17 3.362-5.893 6.892s3.36 6.17 6.892 5.894zm3.932 50.34l148.792-11.62a6.41 6.41 0 1 0-.999-12.785l-148.792 11.62c-3.53.276-6.17 3.362-5.893 6.892a6.41 6.41 0 0 0 6.892 5.893zm3.932 50.34l148.792-11.62c3.53-.276 6.17-3.36 5.893-6.892a6.41 6.41 0 0 0-6.892-5.893l-148.792 11.62c-3.53.276-6.17 3.36-5.893 6.892a6.41 6.41 0 0 0 6.892 5.893z"/></g><g fill="#e3bda1"><path d="M83.874 342.826l-14.738 83.166-16.844 121.064-7.37 13.686 6.316 13.686 17.896-8.422 7.37-32.635s25.265-30.53 21.055-69.48l45.268-108.432-58.953-12.633zm72.638 8.422l10.528 103.168s-2.106 28.424 4.2 53.7 10.527 69.48 10.527 69.48h21.055l-4.2-129.486 13.685-105.274-55.795 8.422z"/></g><g fill="#337748"><path d="M141.774 256.502s-44.215-3.158-44.215 2.106v10.527s-8.422 13.686-7.37 26.318S40.9 397.48 67.217 410.113s55.84 22.808 61.104 18.597 22.928-88 22.928-88-.522 91.364 8.952 92.416 79.702 9.475 79.702 0S184.917 246.5 184.917 246.5s-30.5 11.054-43.143 10zM50.187 561.795s-4.2-7.37-8.422-2.106-20.002 17.897-20.002 17.897-38.95 10.527-12.633 26.318c0 0 23.16 0 32.635-7.37s18.95-4.2 18.95-4.2 14.738-1.053 15.8-7.37S71 557.794 71 557.794s-7.118 9.264-20.803 4zM190.2 568.1s-12.633-3.158-12.633 0-17.896 22.107-3.158 30.53 16.844 6.317 17.896 14.74 28.424 14.738 32.635 9.474 7.37-14.738 2.106-18.95-22.108-30.53-22.108-35.793-14.738 0-14.738 0z"/></g><path opacity=".1" d="M148.22 200.122h-2.855v15.79h2.855v-15.79z" fill="#fff"/><path d="M195.463 217.55s-20-26.318-18.95-7.37 12.633 28.424 14.74 28.424 10.527-2.106 4.2-21.055z" fill="#e3bda1"/><path opacity=".1" d="M99.665 237.825c1.58.255 26.844-9.22 26.844-9.22L142.3 226.5l-42.636 17.83v-6.505z" fill="#000"/><g fill="#337748"><path d="M106.508 40.166a14.74 14.74 0 0 0 14.738-14.738 14.74 14.74 0 0 0-14.738-14.738 14.74 14.74 0 0 0-14.739 14.738 14.74 14.74 0 0 0 14.739 14.738zm90.535-4.21a14.74 14.74 0 0 0 14.738-14.738 14.74 14.74 0 0 0-14.738-14.738c-8.14 0-14.74 6.6-14.74 14.738s6.6 14.738 14.74 14.738z"/><path d="M181.252 14.9c0-3.635 1.344-7.142 3.773-9.846a14.74 14.74 0 0 1 9.386-4.805 14.74 14.74 0 0 0-6.112.62 14.76 14.76 0 0 0-5.328 3.058C181.43 5.31 180.197 7 179.353 8.892a14.74 14.74 0 0 0 0 12.017 14.76 14.76 0 0 0 3.618 4.965c1.54 1.383 3.357 2.424 5.328 3.058a14.74 14.74 0 0 0 6.112.62 14.74 14.74 0 0 1-9.386-4.805c-2.43-2.704-3.773-6.2-3.773-9.846zM90.04 37.35a14.74 14.74 0 0 1-.854-19.675 14.74 14.74 0 0 0-5.597 10.634 14.58 14.58 0 0 0 .9 6.078c.73 1.94 1.84 3.7 3.3 5.188a14.74 14.74 0 0 0 11.179 4.409 14.72 14.72 0 0 0 5.946-1.544c1.85-.926 3.487-2.233 4.8-3.834a14.75 14.75 0 0 1-10.067 3.137 14.74 14.74 0 0 1-9.586-4.392zm61.735.7c-17.442 0-31.582 8.248-31.582 18.423 0 4.553 2.842 8.713 7.534 11.928l6.08-4.405-1.654 6.9c.686.318 1.387.626 2.118.9l9.082-10.596v13.018a53.02 53.02 0 0 0 8.422.668c17.442 0 31.582-8.248 31.582-18.423s-14.14-18.423-31.582-18.423z"/></g><g fill="#52bd74"><path d="M182.304 21.217s-2.3 10.527 12.015 14.738l-12.015-14.738zm-62.11 1.916s5.264 11.77-10.527 17.033l10.527-17.033zm51.43 232.94a2.66 2.66 0 0 0 2.686 2.627l30.993-.34a2.66 2.66 0 0 0 2.627-2.686l-.594-54.016a2.66 2.66 0 0 0-2.686-2.629l-30.993.34a2.66 2.66 0 0 0-2.629 2.687l.594 54.016z"/></g><path d="M84.382 228.37s9.46-3.023 25.264 3.172l33.703-.11s34-9.812 39.77 14.47-45.463 3.635-45.463 3.635-42.98 19.476-60.508-1.28l7.234-19.885z" fill="#e3bda1"/><path d="M659.473 443.367a38.46 38.46 0 0 0-32.416-25.936c-7.318-.77-14.703.577-21.28 3.88a38.46 38.46 0 0 0-15.82 14.751l3.87 11.428a30.34 30.34 0 0 1 28.417-22.122 30.34 30.34 0 0 1 18.156 5.447 30.35 30.35 0 0 1 11.381 15.158c2.078 6.14 2.135 12.78.165 18.955a30.35 30.35 0 0 1-11.115 15.354 30.34 30.34 0 0 1-36.012-.316l3.87 11.43a38.46 38.46 0 0 0 21.527 2.111c7.23-1.37 13.915-4.786 19.262-9.84s9.13-11.54 10.903-18.68a38.46 38.46 0 0 0-.903-21.612l-.007-.005z" fill="#337748"/><path d="M534.152 350.056c-2.098.69-3.842 2.845-3.152 4.944l75.5 231c.69 2.1 4.902 4.2 7 3.5l21.594-7.103c2.1-.69 3.097-5.298 2.406-7.397L562 345c-.7-2.1-3.4-2.7-5.5-2l-22.348 7.056z" fill="#f6f6f6"/><g fill="#337748"><path d="M608.664 592.258a1 1 0 0 1-1.263-.637h0l-77.8-236.504a4 4 0 0 1 2.623-5.072l28.1-8.647c.123-.038.252-.057.38-.057h0c.56 0 1.057.36 1.233.892l77.53 235.684a4 4 0 0 1-2.55 5.049l-28.244 9.292zM534.652 351.27a4 4 0 0 0-2.55 5.049l75.637 229.926a4 4 0 0 0 5.049 2.55l21.595-7.103a4 4 0 0 0 2.549-5.05l-75.635-229.927a4 4 0 0 0-5.049-2.549l-21.596 7.104z"/><path d="M608.664 592.258a1 1 0 0 1-1.263-.637l-77.8-236.504a4 4 0 0 1 2.623-5.072l26.642-8.2c.382-.118.234.744.634.744h0c.56 0 2.252-.888 2.428-.355l77.53 235.684a4 4 0 0 1-2.55 5.049l-28.244 9.292zM534.652 351.27a4 4 0 0 0-2.55 5.049l75.637 229.926a4 4 0 0 0 5.049 2.55l21.595-7.103a4 4 0 0 0 2.549-5.05l-75.635-229.927a4 4 0 0 0-5.049-2.549l-21.596 7.104z"/><path d="M630 599.42l-68.9 14.1-1.57-.16-60.54-6.1v-76.72L573.1 518l53.76 6.27.02.34v.16l3.1 74.65z"/></g><path opacity=".1" d="M630 599.42l-68.9 14.1-1.57-.16V534.7l67.35-10.1 3.1 74.8z" fill="#1f2621"/><path opacity=".05" d="M626.9 524.77l-.02.02-67.33 9.92-60.54-4.18L573.1 518l53.76 6.27.02.34v.16z" fill="#337748"/><path d="M182.593 207.882a3 3 0 1 0-5.89-1.146 3 3 0 1 0 5.89 1.146z" fill="#fff"/><path d="M497 599.42l-68.9 14.1-1.57-.16-60.54-6.1v-76.72L440.1 518l53.76 6.27.02.34v.16l3.1 74.65z" fill="#57ba76"/><path opacity=".1" d="M497 599.42l-68.9 14.1-1.57-.16V534.7l67.35-10.1 3.1 74.8z" fill="#536057"/><path opacity=".05" d="M530.9 539.77l-.02.02-67.33 9.92-60.54-4.18L477.1 533l53.76 6.27.02.34v.16z" fill="#57ba76"/></g><defs><clipPath id="A"><path fill="#fff" d="M0 0h720.694v626H0z"/></clipPath></defs></svg>