<svg width="753" height="257" viewBox="0 0 753 257" fill="none" xmlns="http://www.w3.org/2000/svg">
<path opacity="0.3" d="M461 24.8291H19V256.329H461V24.8291Z" fill="#52BD74"/>
<path d="M672.281 14.7371H495V24.5441H672.281V14.7371Z" fill="#E6E6E6"/>
<path d="M753 32.8423H495V42.6493H753V32.8423Z" fill="#E6E6E6"/>
<path d="M672.281 76.5967H495V86.4037H672.281V76.5967Z" fill="#E6E6E6"/>
<path d="M672.281 149.018H495V158.825H672.281V149.018Z" fill="#E6E6E6"/>
<path d="M753 94.7019H495V104.509H753V94.7019Z" fill="#E6E6E6"/>
<path d="M753 112.807H495V122.614H753V112.807Z" fill="#E6E6E6"/>
<path d="M753 130.913H495V140.72H753V130.913Z" fill="#E6E6E6"/>
<path d="M587.789 192.772H495V218.421H587.789V192.772Z" fill="#52BD74"/>
<path d="M442 0.829102H0V232.329H442V0.829102Z" fill="#E6E6E6"/>
<path d="M229.223 171.219C256.847 171.219 279.241 148.785 279.241 121.111C279.241 93.4367 256.847 71.0024 229.223 71.0024C201.599 71.0024 179.206 93.4367 179.206 121.111C179.206 148.785 201.599 171.219 229.223 171.219Z" fill="white"/>
<path d="M229.223 62.4629C217.4 62.4629 205.843 65.9687 196.013 72.5371C186.183 79.1055 178.521 88.4413 173.997 99.3641C169.472 110.287 168.288 122.306 170.595 133.902C172.901 145.497 178.595 156.148 186.955 164.508C195.315 172.868 205.966 178.561 217.561 180.868C229.157 183.174 241.176 181.991 252.099 177.466C263.022 172.942 272.357 165.28 278.926 155.45C285.494 145.62 289 134.062 289 122.24C288.954 106.4 282.641 91.2226 271.441 80.0223C260.24 68.822 245.063 62.5093 229.223 62.4629ZM216.952 154.111L186.316 123.475L194.909 114.883L216.98 136.954L263.566 90.3683L272.159 98.9612L216.952 154.111Z" fill="#52BD74"/>
</svg>
