<svg xmlns="http://www.w3.org/2000/svg" width="690" height="637" fill="none" xmlns:v="https://vecta.io/nano"><path d="M593 273H0V580H593V273Z" fill="#e6e6e6"/><path d="M264.485 249.652c5.62 4.366 7.677 5.775 8.874 5.596 58 16.9 7.154 36.683-21.026 3.085l12.152-8.68zM73.1 428.093v39.654l28.55-1.586-7.93-41.24-20.62 3.172zm158.613 0v39.654l-28.55-1.586 7.93-41.24 20.62 3.172z" fill="#ffe2d2"/><path d="M144.475 223.48l42.826-1.586c98.794 103.57 61.432 79.948 58.687 222.06l-52.343-15.862 11.104-98.34c.005-.004 2.928-1.953.498-1.998-15.196 5.222-26.284-59.437-59.186-51.93-37.44-1.8-43.536 53.75-58.687 53.93l11.103 98.34-52.343 15.862c-5.86-156.166-34.583-120.888 58.688-222.06l39.653 1.586zM81.03 455.058s-6.344-12.7-14.275-6.345S39.8 474.1 39.8 474.1-6.208 494.7 22.342 507.4s52.343-17.447 52.343-17.447c27.194-5.67 42.88-9.3 28.458-38.964-8.187 3.543-19.774 7.645-22.114 4.07zm142.752 0s6.345-12.7 14.275-6.345 26.965 25.378 26.965 25.378 45.998 20.62 17.447 33.3-52.342-17.447-52.342-17.447c-27.194-5.67-42.88-9.3-28.458-38.964 8.187 3.543 19.774 7.645 22.113 4.07z" fill="#337748"/><g fill="#ffe2d2"><path d="M187.3 44.247c-2.36 39.486-56.248 36.01-57.1 0 2.36-39.485 56.248-36.01 57.1 0z"/><path d="M146.06 64.867c13.876 41.938-18.884 19.105 26.965 52.343l17.447-34.895s-12.69-4.758-11.103-22.206l-33.31 4.758z"/></g><g fill="#52bd74"><path d="M231.713 88.66L184.43 77.867c1.33 28.51-29.096 22.77-34.404 8.43l-45.205 26.154c18.973 70.667 14.165 73.583-11.103 118.96-9.643 8.806 4.78 13.853 17.333 9.034 9.576-5.9 14.44-11.162 24.7-9.826 48.485 10.096 88.848 12.48 95.236 8.534 2.286-3.27-.066-149.927.725-150.495z"/><path d="M219.024 91.83c1.586 0 9.756-3.842 9.756-3.842 23.77-.4 39.723 159.496 41 164.042l-15.86 11.103-25.378-65.032-9.517-106.272z"/></g><path d="M107.994 277.4c.81 5.986 2.19 73.2 26.272 41.808 3.16-22.9-7.582-29.75-10.41-44.98l-15.86 3.172z" fill="#ffe2d2"/><path d="M114.338 112.45l-4.86-2.694c-13.03-.428-8.923 34.06-14.436 59.32-4.503 29.424-3.22 61.87 2.062 105.247.462 15.918 28.973 5.9 33.095 4.673 0 0-9.517-65.032-4.76-76.135s-11.103-90.4-11.103-90.4z" fill="#52bd74"/><path d="M186.053 16.57a34.03 34.03 0 0 0-19.357-14.798l-5.918 4.735 2.3-5.522c-1.935-.295-3.894-.408-5.85-.338l-5.325 6.846L154.108.88c-22.85 2.453-36.367 28.683-24.505 47.04 1.83-5.623 4.05-10.9 5.88-16.523a16.64 16.64 0 0 0 4.336.021l2.226-5.195.622 4.975c6.9-.6 17.135-1.92 23.676-3.13l-.636-3.816 3.806 3.17c2.004-.46 3.194-.88 3.096-1.2 4.865 7.843 9.686 12.853 14.55 20.696 1.846-11.063 5.107-20.26-1.107-30.35z" fill="#337748"/><path d="M572.78 296.98H434.412v65.636H572.78V296.98z" fill="#fff"/><path d="M546.614 310.727h-86.036v7.87h86.036v-7.87zm0 15.135h-86.036v7.87h86.036v-7.87zm0 15.135h-86.036v7.87h86.036v-7.87z" fill="#e6e6e6"/><path d="M308.916 318.57l-9-15.59-9.002 15.59h4.836v22.574h8.33V318.57h4.836z" fill="#fff"/><path d="M508 601c18.225 0 33-14.103 33-31.5S526.225 538 508 538s-33 14.103-33 31.5 14.775 31.5 33 31.5z" fill="#337748"/><path d="M513.5 583c8.008 0 14.5-6.268 14.5-14s-6.492-14-14.5-14-14.5 6.268-14.5 14 6.492 14 14.5 14z" fill="#e6e6e6"/><g fill="#337748"><path d="M487.514 591L559 620.09l-2.234 6.91-41.142-4.546L446 592.273l38.72 4.364 2.793-5.637z"/><path d="M550.33 619l89.434-281.345 21.78-37.092.077-.358c.07-.327 1.67-8.08-2.264-13.694-.992-1.396-2.273-2.58-3.763-3.48s-3.157-1.496-4.898-1.75c-12.02-2.16-38.91-3.226-40.05-3.27l-.215-.008-.213.028c-.734.096-17.92 2.505-21.805 16.897l-18.697 32.633-.074.232L485 594.653l4.658 1.36 84.57-266.63 18.76-32.743.076-.3c2.747-10.83 15.88-13.364 17.627-13.653 2.747.112 28.02 1.19 39.108 3.184 1.1.144 2.158.506 3.106 1.062a7.91 7.91 0 0 1 2.4 2.169c2.424 3.443 1.817 8.51 1.603 9.843l-21.645 36.865-.078.243-89.51 281.588L550.33 619z"/><path d="M563.657 354.777l-.863 4.587 64.427 11.168.863-4.587-64.427-11.168zm-12.033 38.145l-.97 4.567 63.968 12.53.97-4.567-63.968-12.53zm-21.424 68.22l-1.336 4.48 62.453 17.15 1.336-4.48-62.453-17.15zM572.8 593l1.783-4.34-61.013-22.773-2.996-30.924 56.946 20.276 18.45 25.446 4.022-2.65-19.323-26.65L505 528l4 41.178L572.8 593z"/><path d="M593.5 631c17.95 0 32.5-14.103 32.5-31.5S611.45 568 593.5 568 561 582.103 561 599.5s14.55 31.5 32.5 31.5z"/></g><path d="M602.5 615c8.008 0 14.5-6.268 14.5-14s-6.492-14-14.5-14-14.5 6.268-14.5 14 6.492 14 14.5 14z" fill="#e6e6e6"/></svg>