<svg xmlns="http://www.w3.org/2000/svg" width="693" height="749" fill="none" xmlns:v="https://vecta.io/nano"><g clip-path="url(#A)"><path d="M485.39 327.855c41.623 0 75.365-33.742 75.365-75.365s-33.742-75.366-75.365-75.366-75.365 33.742-75.365 75.366 33.742 75.365 75.365 75.365z" fill="#ffe2d2"/><path d="M692.12 308.68c.167-.03.29-.146.485-.116-.085-.327-.195-.646-.33-.955l-.7.953.544.118z" fill="#fff"/><g fill="#e6e6e6"><path d="M186.633 430.865c.44 16.443 3.194 32.74 8.18 48.416l.353 1.085H225.7l-.098-1.085c-2.036-23.405-13.773-165.85.26-190.21-1.227 1.976-41.597 67.428-39.23 141.795z"/><path d="M188.924 479.28l.792 1.086h22.905l-.608-1.086c-3.784-6.83-14.984-27.248-25.38-48.416-11.173-22.748-21.423-46.358-20.56-54.904-.266 1.928-7.997 60.68 22.85 103.32zm238.014 3.916a152.57 152.57 0 0 1-7.132 42.2l-.308.946h-26.62l.085-.946c1.775-20.405 12.008-144.6-.227-165.83 1.07 1.723 36.265 58.785 34.2 123.62z"/><path d="M424.94 525.406l-.69.946h-19.97l.53-.946c3.3-5.955 13.064-23.756 22.127-42.2 9.74-19.832 18.677-40.416 17.925-47.866.232 1.68 6.97 52.902-19.922 90.076z"/></g><g fill="#fff"><path d="M122.584 61.173l12.413-9.928c-9.643-1.064-13.606 4.195-15.227 8.358-7.534-3.128-15.736.97-15.736.97L128.87 69.6c-1.253-3.347-3.434-6.267-6.287-8.418zm373.884-51.105L508.88.14c-9.643-1.064-13.606 4.195-15.227 8.358-7.534-3.128-15.736.972-15.736.972l24.837 9.017a18.8 18.8 0 0 0-6.287-8.418z"/></g><path d="M679.1 402.69a346.44 346.44 0 0 1-.86 24.478c-4.422 63.842-26.558 125.186-63.923 177.14-4.883 6.814-10 13.438-15.38 19.87a347.47 347.47 0 0 1-46.153 45.846l-73.57-43.17-43.988-102.666s65.63-132.887 243.76-130.478l.117 8.98z" fill="#52bd74"/><path d="M678.25 427.167C778 441 846.753 450.165 824.5 492.5S712.377 866.16 675 896L480.612 633.03l-39.01-91.054s63.21-127.983 236.647-114.8z" fill="#337748"/><path d="M614.327 604.308c-4.883 6.814-10 13.438-15.38 19.87a346.17 346.17 0 0 1-133.98 98.526c-10.53 4.342-21.308 8.17-32.333 11.486-79.6 21.17-163.952 15.816-240.245-15.254A347.29 347.29 0 0 1 20.417 551.191c-4.777-10.042-9.072-20.338-12.886-30.89C74.053 471.57 205.136 401.787 348 469.595l105.862 51.29c78.804 39.062 131.252 67.223 160.464 83.422z" fill="#52bd74"/><path d="M598.946 624.178c-37.203 44.588 60.59 146.054 6.554 167.322s-258.164-38.347-315.777-45.615a346.28 346.28 0 0 1-159.534-62.931C83.13 648.932 45.38 603.62 20.417 551.19c55.558-43.935 183.7-122.888 324.325-56.153l96.86 46.94c82.817 41.048 133.83 68.944 157.343 82.2z" fill="#337748"/><path d="M500.887 705.393C514 718 617.793 833.417 605.5 838.5c-41.835 17.24-227.186-89.71-272.434-89.767a346.37 346.37 0 0 1-154.276-36.324c-47.927-23.87-89.667-58.525-121.943-101.244 82.647-8.715 311.1-20.466 444.04 94.228z" fill="#52bd74"/><path d="M492 748c-58 43-349.44 14.807-418 0s55.087-57.15 7.006-108.218C111.067 635.366 370 607 492 748z" fill="#337748"/><path d="M621.068 210.794v.01C373.976 28.113 90.878 156.7 88.69 157.69v-.01c32.088-32.084 70.2-57.523 112.123-74.86a345 345 0 0 1 132.252-26.173c120.128 0 225.958 61.216 288.002 154.148z" fill="#e6e6e6"/><path d="M108.5 409.398c41.8-7.537 63.22-82.786 47.842-168.075S94.623 93.003 52.823 100.54-10.396 183.326 4.98 268.615 66.7 416.934 108.5 409.398z" fill="#52bd74"/><g fill="#337748"><path d="M119.252 509.004c-2.478-187.336-65.158-363.14-65.79-364.893l-5.716 2.062c.63 1.744 62.966 176.627 65.43 362.914l6.076-.083z"/><path d="M8.045 233.776l-1.87 5.783 75.04 24.268 1.87-5.783-75.04-24.268zm141.158-6.516l-61.83 48.967 3.773 4.764 61.828-48.966-3.773-4.765z"/></g><path d="M309.5 382.4c45.96 0 83.22-76.023 83.22-169.8s-37.26-169.8-83.22-169.8-83.22 76.023-83.22 169.8 37.26 169.8 83.22 169.8z" fill="#52bd74"/><g fill="#337748"><path d="M301.815 490.526c33.33-199.975.335-399.227-.002-401.215l-6.483 1.098c.335 1.978 33.14 200.184-.002 399.038l6.487 1.08z"/><path d="M236.233 176.077l-3.102 5.8 75.252 40.25 3.102-5.8-75.252-40.25zm151.572 20.163l-75.243 40.274 3.103 5.8 75.244-40.275-3.104-5.798z"/></g><path d="M424.987 141.823l12.413-9.93c-9.643-1.064-13.606 4.196-15.227 8.358-7.534-3.128-15.736.972-15.736.972l24.837 9.017c-1.253-3.347-3.434-6.267-6.287-8.418z" fill="#fff"/></g><defs><clipPath id="A"><path fill="#fff" d="M0 0h692.605v748.733H0z"/></clipPath></defs></svg>